<svg xmlns="http://www.w3.org/2000/svg" viewBox="0 0 64 64">
  <rect width="64" height="64" fill="#ffffff" rx="10"/>
  <g fill="none" stroke-width="5" stroke-linecap="round" stroke-linejoin="round">
    <path d="M 8,20 C 11,17 14,17 18,20 C 22,23 26,23 30,20 C 34,17 38,17 42,20 C 46,23 50,23 56,20" stroke="#507AA6"/>
    <path d="M 8,32 C 11,29 14,29 18,32 C 22,35 26,35 30,32 C 34,29 38,29 42,32 C 46,35 50,35 56,32" stroke="#D4872C"/>
    <path d="M 8,44 C 11,41 14,41 18,44 C 22,47 26,47 30,44 C 34,41 38,41 42,44 C 46,47 50,47 56,44" stroke="#507AA6"/>
  </g>
</svg>
