<svg xmlns="http://www.w3.org/2000/svg" width="294" height="118" viewBox="0 0 294 118" fill="none"><path fill-rule="evenodd" clip-rule="evenodd" d="M103 29.8023H130.485L115.849 53.8863L136.427 37.4376L130.485 29.8023H145.261L136.916 36.3253L136.909 36.316V36.3323H136.912L136.916 36.3253L154.091 57.9999L168.571 28.8639L182.72 0.367432L161.419 17.1176L168.571 28.8639H166.911H147.187L161.021 17.8079L150.396 0L130.485 29.8023L116.146 12.3115L103 29.8023ZM168.2 29.807L177.72 45.7836L189.37 29.807H168.2ZM0 86.4801H5.4834L12.7751 100.427L20.0717 86.4801H25.5502L15.2853 105.189V117.043H10.2259V105.362L0 86.4801ZM58.7942 86C63.3759 86 66.9219 87.3721 69.4198 90.1186L69.415 90.1211C71.9154 92.8677 73.168 96.7328 73.168 101.729C73.168 106.7 71.9129 110.568 69.4028 113.329C66.8926 116.088 63.3418 117.465 58.7528 117.465C54.098 117.465 50.5228 116.095 48.0297 113.354C45.5317 110.617 44.2888 106.725 44.2888 101.68C44.2888 96.6354 45.5463 92.7604 48.0565 90.0553C50.5642 87.3501 54.1394 86 58.7942 86ZM58.7966 90.2892C55.7747 90.2892 53.4936 91.2543 51.9582 93.1893L51.9558 93.1918L51.951 93.1967C50.4107 95.1366 49.6406 97.9782 49.6406 101.726C49.6406 105.489 50.4034 108.343 51.9388 110.285C53.4692 112.225 55.7406 113.2 58.7528 113.2C61.7406 113.2 63.9998 112.237 65.5278 110.312C67.0535 108.389 67.8138 105.526 67.8138 101.719C67.8138 97.9709 67.0583 95.1293 65.5547 93.1893C64.0437 91.2543 61.7894 90.2892 58.7966 90.2892ZM115.103 105.779V86.4825H120.133V106.254C120.133 108.511 119.645 110.49 118.671 112.184C117.696 113.875 116.282 115.179 114.43 116.093C112.583 117.007 110.377 117.463 107.801 117.463C103.98 117.463 101.007 116.458 98.8864 114.453C96.7637 112.445 95.7036 109.686 95.7036 106.172V86.4801H100.77V105.823C100.77 108.345 101.362 110.21 102.54 111.404C103.722 112.603 105.53 113.2 107.979 113.2C112.726 113.2 115.103 110.726 115.103 105.779ZM161.358 115.04V117.043L161.363 117.048H144.518V86.4777H146.663V115.04H161.358ZM185.01 115.082H199.705V117.041H182.86V86.4801H199.705V88.4468H185.015V100.013H198.882V101.97H185.01V115.082ZM243.197 86.4801H245.283L245.281 86.4825V117.043H243.107L224.854 89.9115H224.683C224.854 93.1455 224.939 95.585 224.939 97.2276V117.041H222.879V86.4801H225.024L243.261 113.573H243.392C243.261 111.065 243.197 108.684 243.197 106.423V86.4801ZM278.532 86.4801C283.443 86.4801 287.184 87.7547 289.755 90.3063L289.753 90.3039C292.321 92.8555 293.603 96.5744 293.603 101.473C293.603 106.601 292.248 110.48 289.533 113.107C286.818 115.735 282.839 117.041 277.582 117.041H270.198V86.4801H278.532ZM272.349 115.164H277.453H277.458V115.157C286.665 115.157 291.266 110.622 291.266 101.548C291.266 97.1715 290.145 93.879 287.903 91.6711C285.661 89.4606 282.368 88.3566 278.023 88.3566H272.349V115.164Z" fill="#000D3C"></path></svg>